<?xml version="1.0" encoding="utf-8"?>
<!-- Generator: Adobe Illustrator 22.0.1, SVG Export Plug-In . SVG Version: 6.00 Build 0)  -->
<svg version="1.1" id="Layer_1" xmlns="http://www.w3.org/2000/svg" xmlns:xlink="http://www.w3.org/1999/xlink" x="0px" y="0px"
	 viewBox="0 0 291.1 287.6" style="enable-background:new 0 0 291.1 287.6;" xml:space="preserve">
<style type="text/css">
	.st0{opacity:0.42;fill:url(#SVGID_1_);}
	.st1{opacity:0.43;fill:#F9B2D9;}
	.st2{fill:#17161C;}
	.st3{fill:#1E394C;}
	.st4{fill:#D60665;}
	.st5{opacity:0.25;fill:#34648C;}
	.st6{fill:#F2499E;}
	.st7{fill:#F2BF75;}
	.st8{fill:#AAC6CE;}
	.st9{fill:#CEE5ED;}
	.st10{fill:#EA9249;}
	.st11{fill:#0F2A3F;}
	.st12{opacity:0.43;fill:#F2BDDA;}
	.st13{fill:#34648C;}
	.st14{fill:#67B8EF;}
	.st15{opacity:0.26;fill:#0F2A3F;}
	.st16{opacity:0.42;fill:#34648C;}
</style>
<g>
	<linearGradient id="SVGID_1_" gradientUnits="userSpaceOnUse" x1="145.5575" y1="248.0593" x2="145.5575" y2="4.1491">
		<stop  offset="0" style="stop-color:#FFFFFF"/>
		<stop  offset="0.1005" style="stop-color:#FFF8FB"/>
		<stop  offset="0.2438" style="stop-color:#FFE6F1"/>
		<stop  offset="0.4129" style="stop-color:#FFC7E0"/>
		<stop  offset="0.6016" style="stop-color:#FF9CC8"/>
		<stop  offset="0.8038" style="stop-color:#FF66AA"/>
		<stop  offset="1" style="stop-color:#FF2A89"/>
	</linearGradient>
	<path class="st0" d="M77.4,264.9h136.4c30.4-21,50.3-55.5,50.3-94.6c0-63.9-53-125-118.5-125c-65.4,0-118.5,61-118.5,125
		C27.1,209.4,46.9,243.9,77.4,264.9z"/>
	
		<ellipse transform="matrix(0.2241 -0.9746 0.9746 0.2241 -147.8889 323.3881)" class="st1" cx="129.2" cy="254.6" rx="15.7" ry="85"/>
	<path class="st2" d="M170.1,175c-7.9-2.9-14.2-11.6-14.2-19.4l0-132.7c0-7.8,6.4-11.9,14.2-9l57.6,21c7.9,2.9,14.2,11.6,14.2,19.4
		l0,132.7c0,7.8-6.4,11.9-14.2,9L170.1,175z"/>
	<path class="st3" d="M171.1,179.4c-8.3-3-15-12.2-15-20.4l0-139.9c0-8.2,6.7-12.5,15-9.5l60.8,22.2c8.3,3,15,12.2,15,20.4l0,139.9
		c0,8.2-6.7,12.5-15,9.5L171.1,179.4z"/>
	<path class="st4" d="M170.1,169.6c-4.9-1.8-8.8-7.2-8.8-12l0-132.7c0-4.9,4-7.4,8.8-5.6l57.6,21c4.9,1.8,8.8,7.2,8.8,12l0,132.7
		c0,4.9-4,7.4-8.8,5.6L170.1,169.6z"/>
	<path class="st5" d="M227.8,40.3l-57.6-21c-3.4-1.3-6.4-0.4-7.9,2c1.6-0.8,3.6-0.9,5.8-0.1l57.6,21c4.9,1.8,8.8,7.2,8.8,12l0,132.7
		c0,1.4-0.3,2.6-0.9,3.6c1.9-0.9,3-2.9,3-5.5l0-132.7C236.6,47.5,232.7,42.1,227.8,40.3z"/>
	<path class="st3" d="M220.4,36.6l-42.9-15.6l1.9,5.1c0.9,2.3,2.8,4.3,5,5.1l29,10.6c2.2,0.8,4.2,0.2,5-1.5L220.4,36.6z"/>
	<path class="st6" d="M225.4,58.6l-53-19.3c-2.8-1-5.1,0.4-5.1,3.2v23.9c0,2.8,2.3,6,5.1,7l53,19.3c2.8,1,5.1-0.4,5.1-3.2l0-23.9
		C230.6,62.7,228.3,59.6,225.4,58.6z"/>
	<path class="st6" d="M225.4,100.5l-53-19.3c-2.8-1-5.1,0.4-5.1,3.2v23.9c0,2.8,2.3,6,5.1,7l53,19.3c2.8,1,5.1-0.4,5.1-3.2v-23.9
		C230.6,104.7,228.3,101.6,225.4,100.5z"/>
	<path class="st6" d="M225.4,143l-53-19.3c-2.8-1-5.1,0.4-5.1,3.2v23.9c0,2.8,2.3,6,5.1,7l53,19.3c2.8,1,5.1-0.4,5.1-3.2V150
		C230.6,147.1,228.3,144,225.4,143z"/>
	<g>
		<path class="st3" d="M208.5,62.6l-18.3-6.7c-0.6-0.2-1.1,0.1-1.1,0.7l0,0c0,0.6,0.5,1.3,1.1,1.5l18.3,6.7c0.6,0.2,1.1-0.1,1.1-0.7
			l0,0C209.6,63.5,209.1,62.8,208.5,62.6z"/>
		<path class="st3" d="M208.5,75.1l-18.3-6.7c-0.6-0.2-1.1,0.1-1.1,0.7l0,0c0,0.6,0.5,1.3,1.1,1.5l18.3,6.7c0.6,0.2,1.1-0.1,1.1-0.7
			l0,0C209.6,76,209.1,75.3,208.5,75.1z"/>
		<path class="st3" d="M214.1,71l-30.3-11c-0.6-0.2-1.1,0.1-1.1,0.7l0,0c0,0.6,0.5,1.3,1.1,1.5l30.3,11c0.6,0.2,1.1-0.1,1.1-0.7l0,0
			C215.2,71.9,214.7,71.2,214.1,71z"/>
	</g>
	<g>
		<path class="st3" d="M208.5,107.6l-18.3-6.7c-0.6-0.2-1.1,0.1-1.1,0.7l0,0c0,0.6,0.5,1.3,1.1,1.5l18.3,6.7
			c0.6,0.2,1.1-0.1,1.1-0.7l0,0C209.6,108.5,209.1,107.8,208.5,107.6z"/>
		<path class="st3" d="M214.1,116l-30.3-11c-0.6-0.2-1.1,0.1-1.1,0.7l0,0c0,0.6,0.5,1.3,1.1,1.5l30.3,11c0.6,0.2,1.1-0.1,1.1-0.7
			l0,0C215.2,116.9,214.7,116.2,214.1,116z"/>
	</g>
	<g>
		<path class="st3" d="M208.5,146.9l-18.3-6.7c-0.6-0.2-1.1,0.1-1.1,0.7l0,0c0,0.6,0.5,1.3,1.1,1.5l18.3,6.7
			c0.6,0.2,1.1-0.1,1.1-0.7l0,0C209.6,147.8,209.1,147.2,208.5,146.9z"/>
		<path class="st3" d="M208.5,159.4l-18.3-6.7c-0.6-0.2-1.1,0.1-1.1,0.7l0,0c0,0.6,0.5,1.3,1.1,1.5l18.3,6.7
			c0.6,0.2,1.1-0.1,1.1-0.7l0,0C209.6,160.3,209.1,159.6,208.5,159.4z"/>
		<path class="st3" d="M214.1,155.4l-30.3-11c-0.6-0.2-1.1,0.1-1.1,0.7l0,0c0,0.6,0.5,1.3,1.1,1.5l30.3,11c0.6,0.2,1.1-0.1,1.1-0.7
			l0,0C215.2,156.3,214.7,155.6,214.1,155.4z"/>
	</g>
	<g>
		<path class="st7" d="M156.3,250.9c0,0-2.8-1-3.1-7.1h-8.1l-0.8,8.3l6,5l5.2-2.6L156.3,250.9z"/>
		<path class="st3" d="M144.3,252.1c0,0,9.4,3.1,12-1.3c0,0,17.4,6.5,17.3,8.4c-0.2,3.1-14.6,3.7-17.8,2.9l-2.8-2.8l-1.2,3.2h-7.9
			C143.9,262.6,144,252.6,144.3,252.1z"/>
		<path class="st7" d="M126.2,250.9c0,0-2.7-1.1-2.8-7.2l-8.1-0.4l-1.2,8.3l5.8,5.3l5.3-2.4L126.2,250.9z"/>
		<path class="st3" d="M114.2,251.7c0,0,9.3,3.5,12-0.7c0,0,15.2,5.5,16.1,8c0.9,2.5-14,4.2-17.1,3.3l-2.6-2.9l-1.3,3.1l-7.9-0.4
			C113.3,262.1,113.8,252.1,114.2,251.7z"/>
		<path class="st3" d="M108.8,155.4c0,0,5.2,21.2,6.5,24.8c1.3,3.5,4,20.8,4.1,21.4c0.1,0.6-5.9,45-5.9,45s8.2,1.8,11.5-0.3
			l8.9-44.8l-3.8-44.1L108.8,155.4z"/>
		<path class="st3" d="M109.9,154.2c0,0,8.1,13.8,15.3,19.9c7.2,6.2,16.1,22.7,16.1,22.7l1.1,49.2l0,0c3.5,2.1,7.8,2.2,11.3,0.3
			l0.5-0.3c0,0,1.3-51.1,1.1-54.5c-0.2-3.4-18.3-42.4-18.3-42.4L109.9,154.2z"/>
		<path class="st3" d="M141.1,63.8c0,0-6.3,22.3-16.4,21.6c-8.9-0.6-10.5-9.8-8.4-21.1c2.2-11.8,12-10.2,17.6-10.3c0,0,7,0,8.2-5.4
			C142.1,48.7,150.2,59.8,141.1,63.8"/>
		<path class="st8" d="M125,91c0,0-12.4-2.2-18.1,24.2c-2.4,11.1,10.2,28.4,10.2,28.4l13.2-25.3L125,91z"/>
		<path class="st7" d="M176.9,76c0,0,4.7-12.8,4.7-16.3s2.7-0.4,2.5,2.2c-0.1,2.7-0.7,5.6-0.7,5.6s3.6,0.3,3.6,2
			c0,1.7-1.2,7.6-2.9,8.6L176.9,76z"/>
		<path class="st9" d="M131.9,92.8c8.2,4.2,25.8,15.3,29.8,11.7c4-3.6,15.2-28.4,15.2-28.4l7.2,2.1c0,0-15.4,41.4-20,41.3
			c-4.6-0.1-20.1-3.1-20.1-3.1s-1.4,29.2-5.7,37.3c0,0-20.9,7.5-31.7,1.4c0,0,8.9-11.4,6.6-28.3C110.7,109,115.5,84.4,131.9,92.8z"
			/>
		<g>
			<path class="st10" d="M141.1,63.8c0,0,0.7,3.9,1.9,5.7c1.2,1.8,3.7,3.6,3.7,3.6l-2,2.5c0,0,1.5,8.9-8,10.6l-1,8.8l-10.7-3.6
				l-0.4-6c0,0,1.8-1.9,1.9-3.8c0,0-2.1-2.1-1.4-4.5c0.7-2.4,2.9-4.3,3.9-3.4c1,0.9,1.1,2.7,1.1,2.7h1.4c0,0-0.2-4,0.6-5.7
				C133.1,68.4,136,65,141.1,63.8z"/>
			<path class="st7" d="M135.8,95.1l1-8.8c9.4-1.7,8-10.6,8-10.6l2-2.5c0,0-2.5-1.8-3.7-3.6c-1.2-1.8-1.9-5.7-1.9-5.7
				c-0.4,0.1-0.8,0.2-1.2,0.4c0.7,1.9,1.6,4.9,1.9,7.8c0.4,4.6-0.4,9.7-6.7,13.6c-2.2,1.3-2.9,4.9-3.2,8.2L135.8,95.1z"/>
		</g>
	</g>
	<path class="st11" d="M132.3,183.5c-7.1-1.6-13.7-5.8-18.9-9.9c-1.7-6.4-3.8-15-4.5-17.5c0.8,0.3,1.7,0.5,2.5,0.7
		c2.7,4.3,8.4,12.9,13.7,17.4c2.3,1.9,4.7,4.9,7,8.1L132.3,183.5z"/>
	<path class="st12" d="M232,231.3c-0.1-3.4-16.6-9.1-36.8-12.9c-20.2-3.8-36.5-4.1-36.4-0.8c0.1,3.4,16.6,9.1,36.8,12.9
		C215.8,234.3,232.1,234.6,232,231.3z"/>
	<g>
		<path class="st13" d="M74.3,176.4c0,0,5-43.3-12.9-36.5C42.9,146.8,66,175.4,74.3,176.4z"/>
		<path class="st14" d="M69.4,202.5c0,0-5.4-43.3-21.2-31.3C34,182,58.9,199.3,69.4,202.5z"/>
		<path class="st3" d="M57.7,186.2c7.2,10,14.2,20.1,16.4,32.5c0.1,0.7,1.1,0.4,1-0.3c-2.2-12.4-9.3-22.7-16.5-32.7
			C58.3,185.2,57.4,185.7,57.7,186.2L57.7,186.2z"/>
		<path class="st14" d="M83.1,167.2c0,0-6.5-31.8,9.9-28.9C109.4,141.1,87.2,165.6,83.1,167.2z"/>
		<path class="st13" d="M84.6,197.9c-0.8,0.6-1.7-26.9,9.9-25.9C106.1,172.9,100.7,187.1,84.6,197.9z"/>
		<path class="st3" d="M79.6,195.7c-1.3-16.1,5.4-34.3,11.7-49c0.3-0.6-0.6-1.1-0.9-0.5c-6.4,14.9-13.1,33.1-11.8,49.5
			C78.6,196.3,79.6,196.3,79.6,195.7L79.6,195.7z"/>
		<path class="st3" d="M81,216.1c-0.8-18.9-2.5-38.1-13.1-54.4c-0.4-0.6-1.3,0-0.9,0.5c10.5,16.1,12.1,35.1,13,53.9
			C80,216.8,81.1,216.8,81,216.1L81,216.1z"/>
		<path class="st3" d="M83.5,215.3c0.4-10,1.1-19.9,6.6-28.5c0.4-0.6-0.5-1.1-0.9-0.5c-5.6,8.8-6.3,18.9-6.7,29
			C82.4,216,83.4,216,83.5,215.3L83.5,215.3z"/>
		<g>
			<path class="st9" d="M65.2,213.2l2.7,24.4c0.3,3,2.9,5.4,6,5.4h15.5c3.1,0,5.6-2.3,6-5.4l2.7-24.4c0.1-1.3-0.9-2.5-2.2-2.5H67.4
				C66.1,210.7,65.1,211.9,65.2,213.2z"/>
			<path class="st8" d="M95.9,210.7H86c1.3,0,2.4,1.2,2.2,2.5l-2.7,24.4c-0.3,3-2.9,5.4-6,5.4h9.9c3.1,0,5.6-2.3,6-5.4l2.7-24.4
				C98.3,211.9,97.2,210.7,95.9,210.7z"/>
		</g>
		<path class="st15" d="M68.2,173c2.3,1.9,4.5,3.1,6.1,3.3c0,0,4.9-43-12.8-36.6C66.2,145.7,76.3,160.8,68.2,173z"/>
		<path class="st15" d="M95.5,172.1c0.4,5.4,0.3,19.8-11.3,19c-0.2,4,0.1,7,0.4,6.8C100.3,187.4,105.8,173.8,95.5,172.1z"/>
		<path class="st16" d="M93.8,138.4c0.4,5.6,0.3,21.3-11.8,20.7c0.4,4.6,1.1,8.1,1.1,8.1C87.2,165.7,108.6,142,93.8,138.4z"/>
		<path class="st16" d="M69.4,202.5c0,0-5.4-43.3-21.2-31.3c-0.5,0.4-0.9,0.8-1.3,1.2c4.9,1.7,21.1,8.8,15.8,27.2
			C65.2,200.9,67.5,201.9,69.4,202.5z"/>
	</g>
</g>
</svg>
