<?xml version="1.0" encoding="utf-8"?>
<!-- Generator: Adobe Illustrator 22.0.1, SVG Export Plug-In . SVG Version: 6.00 Build 0)  -->
<svg version="1.1" id="Layer_1" xmlns="http://www.w3.org/2000/svg" xmlns:xlink="http://www.w3.org/1999/xlink" x="0px" y="0px"
	 viewBox="0 0 291.1 287.6" style="enable-background:new 0 0 291.1 287.6;" xml:space="preserve">
<style type="text/css">
	.st0{opacity:0.42;fill:url(#SVGID_1_);}
	.st1{opacity:0.42;fill:url(#SVGID_2_);}
	.st2{fill:#F2BF75;}
	.st3{fill:#1E394C;}
	.st4{fill:#CEE5ED;}
	.st5{fill:#FF3399;}
	.st6{opacity:0.25;fill:#34648C;}
	.st7{fill:#EA9249;}
	.st8{fill:#F6BA8E;}
	.st9{fill:#B4CCD3;}
	.st10{fill:#0E5C77;}
	.st11{fill:#34648C;}
	.st12{opacity:0.26;fill:#0F2A3F;}
	.st13{fill:#67B8EF;}
	.st14{fill:#AAC6CE;}
</style>
<g>
	<linearGradient id="SVGID_1_" gradientUnits="userSpaceOnUse" x1="145.5575" y1="240.2675" x2="145.5575" y2="-18.1308">
		<stop  offset="0" style="stop-color:#FFFFFF"/>
		<stop  offset="0.1005" style="stop-color:#FFF8FB"/>
		<stop  offset="0.2438" style="stop-color:#FFE6F1"/>
		<stop  offset="0.4129" style="stop-color:#FFC7E0"/>
		<stop  offset="0.6016" style="stop-color:#FF9CC8"/>
		<stop  offset="0.8038" style="stop-color:#FF66AA"/>
		<stop  offset="1" style="stop-color:#FF2A89"/>
	</linearGradient>
	<path class="st0" d="M73.3,258.1h144.5c32.2-22.2,53.3-58.8,53.3-100.3c0-67.7-56.2-132.4-125.5-132.4C76.2,25.4,20,90.1,20,157.8
		C20,199.3,41.1,235.9,73.3,258.1z"/>
	<linearGradient id="SVGID_2_" gradientUnits="userSpaceOnUse" x1="38.5481" y1="258.4595" x2="247.0221" y2="258.4595">
		<stop  offset="0" style="stop-color:#FFFFFF"/>
		<stop  offset="0.1005" style="stop-color:#FFF8FB"/>
		<stop  offset="0.2438" style="stop-color:#FFE6F1"/>
		<stop  offset="0.4129" style="stop-color:#FFC7E0"/>
		<stop  offset="0.6016" style="stop-color:#FF9CC8"/>
		<stop  offset="0.8038" style="stop-color:#FF66AA"/>
		<stop  offset="1" style="stop-color:#FF2A89"/>
	</linearGradient>
	<ellipse class="st1" cx="142.8" cy="258.5" rx="104.2" ry="5.2"/>
	<g>
		<polygon class="st2" points="128.1,239 128.9,243.9 125.2,248.7 115.6,244.2 114.5,239.7 126.3,237.8 		"/>
		<path class="st3" d="M120.6,254.9l-1-1.2c-0.2-0.2-0.5-0.2-0.7,0l-1,1.2c-0.4,0.5-1,0.7-1.6,0.7l-22.1-0.1
			c-0.4-0.4-0.5-1.2-0.1-1.7c3.2-3.3,20.5-9.2,21.4-9.7c0.9-0.5,6.2,3.6,13.3-0.3c0,0,1.2,5.5,1.4,9.1c0.1,1.5-1,2.7-2.5,2.7l-5.6,0
			C121.6,255.7,121,255.4,120.6,254.9z"/>
	</g>
	<g>
		<polygon class="st2" points="163.5,239.2 164.3,244.1 160.6,248.9 151,244.4 149.9,239.9 161.7,238 		"/>
		<path class="st3" d="M156,255.1l-1-1.2c-0.2-0.2-0.5-0.2-0.7,0l-1,1.2c-0.4,0.5-1,0.7-1.6,0.7l-22.1-0.1c-0.4-0.4-0.5-1.2-0.1-1.7
			c3.2-3.3,20.5-9.2,21.4-9.7c0.9-0.5,6.2,3.6,13.3-0.3c0,0,1.2,5.5,1.4,9.1c0.1,1.5-1,2.7-2.5,2.7l-5.6,0
			C157,255.9,156.4,255.6,156,255.1z"/>
	</g>
	<polygon class="st4" points="112.5,80 105.8,105.7 87.5,93.5 79.2,100.1 103.1,122.4 120.3,106.5 	"/>
	<path class="st2" d="M87.5,93.5L82.2,83c-0.6-1.1-2-1.5-3.1-0.9l0,0c-3,1.8-4.5,5.2-3.8,8.5c0.7,3.4,1.9,7.3,3.9,9.4L87.5,93.5z"/>
	<path class="st3" d="M80.9,73.2l-5.8-0.5c-0.8-0.1-1.4,0.5-1.2,1.2L78,90.3c0.2,0.7,1,1.4,1.9,1.5l5.8,0.5c1.4,0.1,2.1,2.5,1.2-1.2
		l-4.1-16.4C82.6,73.9,81.7,73.3,80.9,73.2z"/>
	<path class="st2" d="M87.5,93.5l1.2-3.9c0.5-1,0.2-2.2-0.7-2.8l-2-1.4c-0.6-0.4-1.4-0.3-1.9,0.2l0,0c-0.5,0.6-0.5,1.6,0.2,2.1
		l0.9,0.7l1,0.7l-2.3,3.4L87.5,93.5z"/>
	<path class="st3" d="M164.7,240.3c0-5.7-6.7-101.2-6.7-101.2s-13.5-13.1-20.8-11.7c-7.3-1.4-24,8.3-24,8.3s0.3,98.9,0.3,104.6h15.9
		c0,0,0.1-45.5,6.3-78.4c0.3-1.5,2.5-1.6,2.8-0.1c6.2,32.9,10.3,78.5,10.3,78.5H164.7z"/>
	<path class="st4" d="M137.5,64.5c0,0,18.7,4.6,21.3,7.6c2.6,3,12.3,21.6,12.1,27.9c-0.2,7.3-12.8,23-12.5,22.1v22.1
		c0,0-28.7,9-46-2c0,0-2-56.8,0.4-63.1c0.7-1.9,10.2-10.2,12.9-11.2C128.6,66.9,137.5,64.5,137.5,64.5z"/>
	<path class="st4" d="M171,100c-0.2,6.5-10.2,19.7-12.2,21.8c0,0,0,0,0,0c-0.2,0.2-0.3,0.2-0.3,0.2l-6.3,5.7l-7.6-6.9
		c0,0,14-10,12.1-22.9c-1.4-9-10.8-25.2-10.8-25.2c-3.2-1.8-6.4-5.1-8.8-8.1c0.3-0.1,0.5-0.1,0.5-0.1s18.7,4.6,21.3,7.6
		C161.4,75.1,171.2,93.7,171,100z"/>
	<path class="st5" d="M170.6,95.2h-66.2c-2.5,0-4.6,2-4.6,4.6v32.5c0,2.5,2,4.6,4.6,4.6h66.2c2.5,0,4.6-2,4.6-4.6V99.7
		C175.1,97.2,173.1,95.2,170.6,95.2z"/>
	<path class="st6" d="M168.4,95.2h-8c3.7,0,6.8,3,6.8,6.8V130c0,3.7-3,6.8-6.8,6.8h8c3.7,0,6.8-3,6.8-6.8v-28.1
		C175.1,98.2,172.1,95.2,168.4,95.2z"/>
	<rect x="99.8" y="108.6" class="st3" width="75.3" height="9.7"/>
	<g>
		<rect x="107" y="124.8" class="st3" width="14.8" height="2.1"/>
		<rect x="107" y="129.4" class="st3" width="7.2" height="2.1"/>
	</g>
	<path class="st7" d="M138.5,54.1v13.3c0,0-4.3,13.3-14.3,2.8l-0.9-10.6L138.5,54.1z"/>
	<path class="st3" d="M112.5,43.7c0,0-16.9-3.6-6.5-18c0,0,1.8,7.7,11,1.1c4.7-3.3,11.6-4.2,19.3,0c8.3,4.5,11.2,18.2,4.1,25.4
		l-13.8-2.8L112.5,43.7z"/>
	<path class="st2" d="M112.5,43.7c0,0-2,23,13.2,21.5c11.9-1.2,11.5-10.2,11.5-10.2s3.9-0.8,4.1-4.3c0.2-3.5-0.9-6.4-4.4-4.1
		c0,0-6.2-4-6.6-6.8C130.4,39.9,123.1,43.9,112.5,43.7z"/>
	<path class="st8" d="M132.6,142.5c-0.8,0.9-0.5,2.5,0.6,3.4l2.6,2.1c1.1,0.9,2.7,0.9,3.4-0.1l8.1-10.1l-7.8-6l-8.4,6
		c-0.6,0.4-0.6,1.3,0,1.7c0.4,0.2,0.8,0.4,1.4,0.3c1.6-0.2,2.2-1.1,2.2-1.1L132.6,142.5z"/>
	<path class="st4" d="M138.1,132l9.1,7.3c0,0,24.6-27.2,24.7-37.6c0.1-5.9-7-19.9-11.5-27.5h-15.9c0,0,11.4,17.1,14.8,25.3
		c0.7,1.6,0.5,3.3-0.5,4.7C154.6,110.2,142.3,127.9,138.1,132z"/>
	<path class="st9" d="M160.4,74.1c0,0,9.1,22.5,9,27c-0.1,9-19.7,30.3-24.8,36l2.6,2.1c0,0,24.6-27.2,24.7-37.6
		C171.9,95.8,164.8,81.7,160.4,74.1z"/>
	<path class="st9" d="M156.9,95l-0.5,0.2h-41.1l-0.6-0.2l38.6-1c0,0-5-13.9-4.2-13.5C149.9,80.9,156.9,95,156.9,95z"/>
	<path class="st7" d="M119.2,61.9c-1.6-1.7-1.9-4.8-1.9-4.8s-1.8,0-2-0.2c-0.2-0.2,0.6-6.6,0.4-7.7c-0.1-0.8-0.5-3.9-0.7-5.5
		c-1,0.1-1.4,0.1-2.5,0.1c0,0-2,23,13.2,21.5C122.1,65.3,120.9,63.6,119.2,61.9z"/>
	<path class="st10" d="M87.9,51.6c-1.3-7-8-11.7-15-10.4c-7,1.3-11.7,8-10.4,15c1.2,6.9,7.8,11.5,14.7,10.5l2.7,3.1l0.5-4
		C85.7,63.4,89,57.6,87.9,51.6z M68.6,55.1c-0.9,0-1.6-0.7-1.6-1.6c0-0.9,0.7-1.6,1.6-1.6c0.9,0,1.6,0.7,1.6,1.6
		C70.2,54.4,69.5,55.1,68.6,55.1z M75,55.1c-0.9,0-1.6-0.7-1.6-1.6c0-0.9,0.7-1.6,1.6-1.6c0.9,0,1.6,0.7,1.6,1.6
		C76.6,54.4,75.9,55.1,75,55.1z M81.3,55.1c-0.9,0-1.6-0.7-1.6-1.6c0-0.9,0.7-1.6,1.6-1.6s1.6,0.7,1.6,1.6
		C82.9,54.4,82.2,55.1,81.3,55.1z"/>
	<g>
		<g>
			<path class="st11" d="M239.6,191.9c4.7-5,5.8-11.5,2.6-14.5s-9.7-1.5-14.4,3.4c-4.7,5-8,13.8-4.8,16.8S234.9,196.8,239.6,191.9z"
				/>
			<path class="st12" d="M242.2,177.3c-1-1-2.3-1.5-3.8-1.6c0.2,0.1,0.3,0.2,0.5,0.4c3.3,3.1,2.1,9.6-2.6,14.5
				c-3.5,3.7-9.3,6.8-13.3,6.8c0,0,0.1,0.1,0.1,0.1c3.3,3.1,11.9-0.8,16.5-5.7C244.3,186.9,245.4,180.4,242.2,177.3z"/>
			<path class="st13" d="M215.8,172.8c0.6-6.7-2.2-12.4-6.3-12.8c-4.1-0.4-8,4.7-8.6,11.4c-0.6,6.7,1.9,15.5,6.1,15.9
				C211,187.7,215.2,179.4,215.8,172.8z"/>
			<path class="st6" d="M209.4,159.9c-0.8-0.1-1.5,0-2.3,0.3c3.4,1.4,5.6,6.5,5,12.5c-0.5,5.5-3.5,12.1-6.8,14
				c0.5,0.3,1,0.5,1.5,0.5c4.1,0.4,8.3-7.8,8.9-14.5C216.4,166.1,213.6,160.3,209.4,159.9z"/>
			<path class="st11" d="M195.7,167.6c-2.9-5.6-8-8.8-11.5-7c-3.5,1.8-4,7.8-1.1,13.4c2.9,5.6,9.3,11.4,12.8,9.6
				C199.4,181.9,198.5,173.2,195.7,167.6z"/>
			<path class="st12" d="M195.7,167.6c-2.9-5.6-8-8.8-11.5-7c-1.3,0.7-2.2,2-2.7,3.6c0.3-0.3,0.7-0.6,1.1-0.8
				c3.5-1.8,8.6,1.4,11.5,7c2,4,3,9.4,2.2,12.9C199.3,181.1,198.4,173,195.7,167.6z"/>
			<path class="st13" d="M190.2,191.2c-5.5-2.5-11.2-1.9-12.6,1.3c-1.4,3.2,1.9,7.8,7.4,10.3c5.5,2.5,13.7,3,15.1-0.2
				C201.6,199.4,195.7,193.6,190.2,191.2z"/>
			<path class="st6" d="M190.2,191.2c-5.5-2.5-11.2-1.9-12.6,1.3c-0.3,0.7-0.4,1.6-0.2,2.4c1.5-3.1,7.1-3.6,12.5-1.2
				c4.4,2,9.1,6.1,10,9.3c0.1-0.1,0.2-0.3,0.3-0.4C201.6,199.4,195.7,193.6,190.2,191.2z"/>
			<path class="st11" d="M241.1,210.6c5.5-2,8.9-6.5,7.6-10.1c-1.3-3.6-6.8-5-12.3-3c-5.5,2-11.5,7.4-10.2,11
				C227.5,212.2,235.6,212.6,241.1,210.6z"/>
			<path class="st12" d="M248.7,200.5c-0.6-1.5-1.9-2.7-3.7-3.3c0.6,0.6,1.1,1.2,1.4,2c1.3,3.6-2.1,8.1-7.6,10.1
				c-3.7,1.3-8.6,1.6-11.8,0.5c2.5,2.4,9.2,2.5,14,0.8C246.6,208.7,250,204.2,248.7,200.5z"/>
			<path class="st3" d="M212.4,230.5c1.3-15.7,8.1-29.9,19.6-40.7c0.4-0.4-0.2-1.1-0.7-0.7c-11.6,11-18.6,25.5-19.9,41.4
				C211.4,231.1,212.4,231.1,212.4,230.5L212.4,230.5z"/>
			<path class="st3" d="M209,228.3c0.4-19.3-5.7-37.9-17.5-53.2c-0.4-0.5-1.2,0-0.8,0.5c11.7,15.2,17.7,33.6,17.3,52.8
				C208,228.9,208.9,228.9,209,228.3L209,228.3z"/>
			<path class="st3" d="M204.9,200.2c2.6-8.3,3.3-17.1,3.6-25.8c0-0.6-0.9-0.6-1,0c-0.3,8.6-1,17.3-3.6,25.5
				C203.8,200.5,204.7,200.8,204.9,200.2L204.9,200.2z"/>
			<path class="st3" d="M190.1,198.6c4.6,2.9,10,5.1,15,7c0.6,0.2,0.8-0.7,0.3-0.9c-5-1.9-10.3-4.1-14.8-6.9
				C190,197.4,189.5,198.3,190.1,198.6L190.1,198.6z"/>
			<path class="st3" d="M230.8,206c-4.6,1.9-9.3,3.5-14.1,4.7c-0.6,0.2-0.3,1.1,0.3,0.9c4.8-1.2,9.5-2.8,14.1-4.7
				C231.6,206.7,231.4,205.8,230.8,206L230.8,206z"/>
		</g>
		<g>
			<path class="st4" d="M192.9,226.1l2.9,26.3c0.4,3.3,3.1,5.8,6.4,5.8h16.8c3.3,0,6.1-2.5,6.4-5.8l2.9-26.3c0.2-1.4-1-2.7-2.4-2.7
				h-30.7C193.9,223.4,192.8,224.6,192.9,226.1z"/>
			<path class="st14" d="M226,223.4h-10.6c1.4,0,2.6,1.3,2.4,2.7l-2.9,26.3c-0.4,3.3-3.1,5.8-6.4,5.8h10.6c3.3,0,6.1-2.5,6.4-5.8
				l2.9-26.3C228.6,224.6,227.4,223.4,226,223.4z"/>
		</g>
	</g>
</g>
</svg>
