<?xml version="1.0" encoding="utf-8"?>
<!-- Generator: Adobe Illustrator 22.0.1, SVG Export Plug-In . SVG Version: 6.00 Build 0)  -->
<svg version="1.1" id="Layer_1" xmlns="http://www.w3.org/2000/svg" xmlns:xlink="http://www.w3.org/1999/xlink" x="0px" y="0px"
	 viewBox="0 0 1000 1000" style="enable-background:new 0 0 1000 1000;" xml:space="preserve">
<style type="text/css">
	.st0{opacity:0.42;fill:url(#SVGID_1_);}
	.st1{opacity:0.43;fill:#CEE5ED;}
	.st2{fill:#AAC6CE;}
	.st3{fill:#85B0BA;}
	.st4{fill:#D60665;}
	.st5{fill:#FFD7EB;}
	.st6{fill:none;stroke:#3E8CCC;stroke-miterlimit:10;}
	.st7{fill:#B20059;}
	.st8{fill:#FF61B0;}
	.st9{fill:#67B8EF;}
	.st10{opacity:0.25;fill:#34648C;}
	.st11{fill:#CEE5ED;}
	.st12{fill:#F2BF75;}
	.st13{fill:#1E394C;}
	.st14{fill:#0F2A3F;}
	.st15{fill:#EA9249;}
	.st16{fill:#80A9B2;}
	.st17{opacity:0.67;fill:#EA9249;}
	.st18{opacity:0.29;fill:#34648C;}
	.st19{fill:#34648C;}
	.st20{opacity:0.48;fill:#1E394C;}
	.st21{fill:#3E8CCC;}
	.st22{fill:#2173AA;}
	.st23{fill:#1A3651;}
</style>
<linearGradient id="SVGID_1_" gradientUnits="userSpaceOnUse" x1="497.9198" y1="845.2756" x2="497.9198" y2="-78.9743">
	<stop  offset="0" style="stop-color:#FFFFFF"/>
	<stop  offset="0.1077" style="stop-color:#FFF8FB"/>
	<stop  offset="0.2613" style="stop-color:#FFE6EE"/>
	<stop  offset="0.4424" style="stop-color:#FFC7D9"/>
	<stop  offset="0.6445" style="stop-color:#FF9CBD"/>
	<stop  offset="0.8613" style="stop-color:#FF6699"/>
	<stop  offset="1" style="stop-color:#FF3F7F"/>
</linearGradient>
<path class="st0" d="M239.5,909h516.9c115.2-79.4,190.5-210.4,190.5-358.6c0-242.3-201-473.5-449-473.5c-248,0-449,231.2-449,473.5
	C48.9,698.6,124.3,829.6,239.5,909z"/>
<ellipse class="st1" cx="497.9" cy="910.3" rx="473.2" ry="18.7"/>
<g>
	<rect x="322" y="685.9" class="st2" width="21.5" height="205.9"/>
	<rect x="322" y="685.9" class="st3" width="21.5" height="28.9"/>
	<path class="st2" d="M436.5,891.9H235.8c-1.3,0-2.3,1.1-2.3,2.3v16.5h205.4v-16.5C438.8,892.9,437.8,891.9,436.5,891.9z"/>
	<path class="st2" d="M281.7,686.1h149.2c-54.3-19.5-33.3-203.1-23.2-272.7c2-14-8.9-26.6-23-26.6l-99.4,0
		c-20.3,0-37.6,15-40.3,35.1c-8.7,63.2-22.5,194.4,4.8,245.2C256,678.9,268.4,686.1,281.7,686.1z"/>
</g>
<ellipse transform="matrix(0.9759 -0.2181 0.2181 0.9759 -33.3139 47.6341)" class="st4" cx="199.1" cy="174.7" rx="104.6" ry="104.6"/>
<circle class="st5" cx="199.1" cy="174.7" r="85.4"/>
<path class="st6" d="M199.1,113.1"/>
<g>
	<path class="st4" d="M174.9,203.9c-1.4,0-2.7-0.5-3.8-1.6c-2.1-2.1-2.1-5.4,0-7.5l22.3-22.3V114c0-2.9,2.4-5.3,5.3-5.3
		c2.9,0,5.3,2.4,5.3,5.3v60.7c0,1.4-0.6,2.8-1.6,3.8l-23.8,23.8C177.6,203.3,176.2,203.9,174.9,203.9z"/>
</g>
<path class="st7" d="M210.2,173.2c0-6.8-5.5-12.2-12.2-12.2c-6.8,0-12.2,5.5-12.2,12.2c0,6.8,5.5,12.2,12.2,12.2
	C204.8,185.4,210.2,179.9,210.2,173.2z"/>
<path class="st4" d="M794.5,272H616.1c-9.1,0-16.6,7.4-16.6,16.6V369c0,9.2,7.4,16.6,16.6,16.6h12.5V405c0,2.7,3.2,4.1,5.2,2.3
	l24.1-21.8h136.7c9.2,0,16.6-7.4,16.6-16.6v-80.4C811.1,279.5,803.7,272,794.5,272z"/>
<g>
	<circle class="st8" cx="661.9" cy="330" r="7.3"/>
	<circle class="st8" cx="706.8" cy="330" r="7.3"/>
	<circle class="st8" cx="748.7" cy="330" r="7.3"/>
</g>
<g>
	<g>
		<path class="st9" d="M210.2,488.1c0-19.7-13.9-39.4-31-39.4c-17.1,0-31,19.7-31,39.4c0,19.7,13.9,35.6,31,35.6
			C196.3,523.7,210.2,507.7,210.2,488.1z"/>
		<path class="st10" d="M179.2,448.7c-2.8,0-5.4,0.6-8,1.5c13.3,4.9,23.1,21.4,23.1,37.9c0,16.5-9.8,30.4-23.1,34.4
			c2.5,0.8,5.2,1.2,8,1.2c17.1,0,31-16,31-35.6C210.2,468.4,196.3,448.7,179.2,448.7z"/>
	</g>
	<g>
		<path class="st11" d="M143.8,511.3l5.6,50.4c0.7,6.3,6,11.1,12.4,11.1h32.1c6.3,0,11.7-4.8,12.4-11.1l5.6-50.4
			c0.3-2.7-1.8-5.1-4.6-5.1h-58.7C145.6,506.2,143.5,508.6,143.8,511.3z"/>
		<path class="st2" d="M148.4,513.7h58.7c1.8,0,3.3,1.1,4.1,2.6l0.5-5c0.3-2.7-1.8-5.1-4.6-5.1h-58.7c-2.8,0-4.9,2.4-4.6,5.1l0.5,5
			C145.1,514.8,146.6,513.7,148.4,513.7z"/>
		<path class="st2" d="M207.1,506.2h-20.4c2.8,0,4.9,2.4,4.6,5.1l-5.6,50.4c-0.7,6.3-6,11.1-12.4,11.1h20.4
			c6.3,0,11.7-4.8,12.4-11.1l5.6-50.4C212,508.6,209.9,506.2,207.1,506.2z"/>
	</g>
</g>
<g>
	<g>
		<g>
			<polygon class="st12" points="464.3,861.4 462.2,876 473.3,890.1 501.4,876.4 504.4,863.1 469.5,857.8 			"/>
			<path class="st13" d="M487,908.2l2.9-3.6c0.5-0.7,1.5-0.7,2.1,0l2.9,3.4c1.2,1.4,2.9,2.2,4.7,2.1l65.3-1.1
				c1.2-1.3,1.6-3.5,0.1-4.9c-9.6-9.7-61-26.3-63.6-27.8c-2.6-1.4-18.3,10.8-39.2-0.4c0,0-3.4,16.3-3.9,26.9
				c-0.2,4.3,3.2,7.9,7.5,7.9l16.6-0.3C484.2,910.4,485.9,909.6,487,908.2z"/>
			<path class="st13" d="M344.6,615.4c0,0-27.1,30,22.5,62.5c34.8,22.8,62.2,15.9,84.1,29.7c5.1,3.2,9,8.1,9.4,14.1l1.1,140.1
				l2.6,1.3c13.1,6.5,28.6,6.7,41.8,0.5l0,0l19.8-159.8c0.7-11-5.2-20.3-12.1-29c-37.9-48.3-105.1-64.6-122.1-67.4
				C369.6,603.8,344.6,615.4,344.6,615.4z"/>
		</g>
		<g>
			<polygon class="st12" points="356.4,861.4 354.1,875.9 365,890.2 393.3,876.9 396.5,863.6 361.6,857.8 			"/>
			<path class="st13" d="M378.4,908.5l2.9-3.6c0.5-0.7,1.5-0.7,2.1,0l2.9,3.5c1.2,1.4,2.9,2.2,4.7,2.2l65.3-0.2
				c1.3-1.3,1.6-3.4,0.2-4.9c-9.4-9.8-60.7-27.2-63.2-28.6c-2.5-1.4-18.5,10.6-39.2-1c0,0-3.6,16.3-4.2,26.9c-0.3,4.3,3.1,8,7.4,8
				l16.6-0.1C375.6,910.7,377.3,909.9,378.4,908.5z"/>
			<path class="st13" d="M262.2,589.3c0,0-32.8,36.6,14.6,77.9c33.3,29,63.2,16.6,84.2,34.3c4.9,4.1,8.3,9.8,7.8,16.2l-15,142.5
				l1.1,0.7c13.1,8.5,29.7,9.6,43.8,3l0,0l37.1-150.1c2.3-11.5-2.6-22.1-8.5-32.2c-32.9-56.2-84.7-89.7-102.2-95
				C302.5,579.6,262.2,589.3,262.2,589.3z"/>
		</g>
		<path class="st14" d="M443.3,703.6c-2.5-1.1-5-1.9-7.6-2.7c-1.4-6.7-4.7-13.2-8.3-19.4c-16.3-27.8-37.3-50.1-56.4-66.1
			c11.9-2,18-4.6,21.2-7.9c6.5,1.1,19.7,4,35.6,9.7C444,644.2,443.9,688,443.3,703.6z"/>
	</g>
	<path class="st11" d="M350.6,395.6c0,0-47.4-6.3-67,30.6c-19.7,36.9-49.1,181.6-23.4,186c11.4,1.9,41.7,9.6,75.3,7.1
		c46.2-3.4,56.3-7.6,59.6-16.4l29.4-134.8c0.7-18.5-7.6-36.4-22.4-47.6C378.6,402.6,350.6,395.6,350.6,395.6z"/>
	<path class="st2" d="M424.4,456.2c0,0,0.6,81.2,26.1,86.1c25.5,4.9,93.5,3.4,93.5,3.4v25.8H398.3L424.4,456.2z"/>
	<path class="st15" d="M389.1,419.4l5.7-28.7l-37.2-28.4l-7.1,33.8C350.5,396.1,362.2,447.8,389.1,419.4z"/>
	<path class="st13" d="M436.6,335.9c0,0-19.5,9.5-48-7.9c0,0-6.6,11.9-25.7,22.5c0,0-9.9-16.7-15.7-4.2c-1.7,3.8-2.5,7.2-2.6,10.2
		c-17.9-23.1-5.3-53.6,11.4-70.1c15.8-15.6,50.1-9.4,71.5-0.8c22.7,9.1,26.9-6.8,26.9-6.8C483.1,319.4,436.6,335.9,436.6,335.9z"/>
	<path class="st12" d="M362.8,350.5c0,0-9.9-16.7-15.7-4.2c-6.9,15.1,0.9,24.6,10.3,24.6c0,0,7.5,39.4,43.7,36.6
		c36.2-2.8,41.4-60.9,35.5-71.7c0,0-19.5,9.5-48-7.9C388.6,328,382,339.9,362.8,350.5z"/>
	<g>
		<path class="st11" d="M676.6,442.7H525.5c-7.4,0-13.9,5.2-15.4,12.5L490,553.8h183.1l18.8-92.3
			C693.9,451.8,686.5,442.7,676.6,442.7z"/>
		<path class="st16" d="M678.6,553.8H416.7c-0.8,0-1.4,0.6-1.4,1.4v14.5c0,0.8,0.6,1.4,1.4,1.4h261.8c0.8,0,1.4-0.6,1.4-1.4v-14.5
			C680,554.5,679.3,553.8,678.6,553.8z"/>
		<path class="st2" d="M672.5,553.8H488c4.1,0,7.5,3.3,7.5,7.5v2.4c0,4.1-3.3,7.5-7.5,7.5h184.5c4.1,0,7.5-3.3,7.5-7.5v-2.4
			C680,557.2,676.6,553.8,672.5,553.8z"/>
	</g>
	<path class="st11" d="M430.9,548.5c-29.4-3.4-111.9-11.8-126.1-13.3c-17.8-1.8,20.9-73.8,25.2-98.4c4.3-24.6-14.5-25.5-14.5-25.5
		c-10.6-1.3-22.1,0-32,14.9c-20.1,30.5-42.6,119.7-30.8,141.7c1.4,2.6,4.1,4.2,7,4.2h171V548.5z"/>
	<path class="st2" d="M430.9,548.5c0,0-106.2-7.3-129.2-10.4c-17.8-2.4,19.3-76.1,23.6-100.7c4.3-24.6-14.8-23.6-14.8-23.6
		c-4.8-0.6-11.7,0.1-16.6,1.6c7.1-4.7,14.6-5,21.6-4.1c0,0,18.7,0.9,14.4,25.5c-4.3,24.6-37.5,95-26.3,97.8
		C317.5,538,401.4,545.1,430.9,548.5z"/>
	<path class="st12" d="M430.9,572.4h39.6c3,0,4.8-3.3,3.1-5.8c-3.7-5.7-9.6-13.8-13.9-15.1c-2.6-0.8-21.8-0.1-28.9,0.7V572.4z"/>
	<path class="st17" d="M436.6,335.9c0,0-3.3,1.5-9,2.2c-0.5,2.7-1.3,7.8-1.8,12.7c-0.7,7,2.8,28.6,0.7,28.7
		c-2.2,0.2-6.6-0.2-6.6-0.2s-3.3,31.2-34.5,26.2c-0.3,0-0.5-0.1-0.8-0.1c4.7,1.7,10.2,2.6,16.6,2.1
		C437.3,404.8,442.5,346.7,436.6,335.9z"/>
</g>
<g>
	<path class="st9" d="M890.9,789.4c0,0,49.8-24.7,36.2-62.1c-13.5-37.4-21.9-39,4-60.1c25.9-21.1,63.3-74.1,15.9-78.1
		c-47.4-4-45,58.9-84.4,67.7C823.2,665.5,801.7,830.4,890.9,789.4z"/>
	<path class="st10" d="M851.7,793.1c9.6,4.4,22.4,4,39.2-3.7c0,0,49.8-24.7,36.2-62.1c-13.5-37.4-21.9-39,4-60.1
		c25.9-21.1,63.3-74.1,15.9-78.1c-4.7-0.4-8.8-0.1-12.6,0.7c13.3,5.5,26.6,16.5,9.5,36.9c-28.6,33.9-43.8,45.8-40.5,67.7
		C906.6,715.7,904.8,764.2,851.7,793.1z"/>
</g>
<g>
	<path class="st9" d="M806.5,788.2c0,0-43.8-1.6-41.4-33.1c2.4-31.5,3.6-32.7-23.9-42.6c-48.6-17.5-10.1-110.8,29.5-52.2
		c27.5,40.7,39.4,31.6,57.3,34.7C845.9,698.3,884.9,802.1,806.5,788.2z"/>
	<path class="st18" d="M828,695.1c-17.9-3.2-29.9,6-57.3-34.7c-20.7-30.7-41.1-19.8-48.9,0.1c11.7-3.6,29.4-5.7,31.6,13.3
		c2.9,24.6,60.4,65,59.3,115.3c0.8,0.1,1.5,0.1,2.2,0.2c8.4-22.1,19.4-50.8,28.9-75.2C838.7,703.5,832.6,695.9,828,695.1z"/>
</g>
<g>
	<path class="st19" d="M816.6,786.8c0,0-54.4-53.2-35.8-62.1c18.5-9,55,20.3,34.6-11.3c-20.3-31.7-44-81-15.9-73.2
		c28.1,7.8,30.1,16.3,26.6-20.6c-4.5-47.7,22.1-72.3,47.2-56.7c25.1,15.5-21.5,120.7-4.2,109.3c17.3-11.3,31.7-20.9,35.2-7.2
		c3.6,13.7-49.6,67.7-29.9,58.5c24.5-11.3,28.1,9,20.3,21.5C887.1,757.5,854.9,832.2,816.6,786.8z"/>
	<path class="st20" d="M894.9,745c7.8-12.5,4.2-32.9-20.3-21.5c-19.7,9.1,33.5-44.8,29.9-58.5s-17.9-4.2-35.2,7.2
		c-17.3,11.3,29.3-93.8,4.2-109.3c-11.7-7.2-23.6-5.7-32.7,2.7c13,3.2,23.4,13.6,16.2,41.8c-15.3,59.8-24.6,109.6,3.3,94.9
		c26.3-13.8-30.5,49.6-31.1,95.3C861.7,816.3,888,756.1,894.9,745z"/>
</g>
<g>
	<path class="st11" d="M779,793l10.5,95.2c1.3,11.9,11.4,20.9,23.4,20.9h60.7c12,0,22-9,23.4-20.9l10.5-95.2
		c0.6-5.2-3.5-9.7-8.7-9.7H787.7C782.5,783.3,778.4,787.8,779,793z"/>
	<path class="st2" d="M898.8,783.3h-38.5c5.2,0,9.3,4.5,8.7,9.7l-10.5,95.2c-1.3,11.9-11.4,20.9-23.4,20.9h38.5c12,0,22-9,23.4-20.9
		l10.5-95.2C908,787.8,904,783.3,898.8,783.3z"/>
</g>
<g>
	<g>
		<path class="st21" d="M791.4,572.1H118.9c-1.4,0-2.5,1.1-2.5,2.5v25.8c0,1.4,1.1,2.5,2.5,2.5h672.5c1.4,0,2.5-1.1,2.5-2.5v-25.8
			C793.9,573.3,792.8,572.1,791.4,572.1z"/>
		<path class="st22" d="M780.7,572.1h-651c-7.3,0-13.2,5.9-13.2,13.2v4.3c0,1.4,0.3,2.7,0.7,4c1.7-5.3,6.6-9.2,12.5-9.2h651
			c5.9,0,10.8,3.9,12.5,9.2c0.4-1.3,0.7-2.6,0.7-4v-4.3C793.9,578.1,788,572.1,780.7,572.1z"/>
	</g>
	<g>
		<g>
			<g>
				<polygon class="st19" points="335.5,909.6 313.7,909.6 162.3,603 184.1,603 				"/>
			</g>
		</g>
		<g>
			<g>
				<polygon class="st19" points="95.9,909.6 117.7,909.6 269,603 247.3,603 				"/>
			</g>
		</g>
		<g>
			<g>
				<polygon class="st19" points="804.1,909.6 782.4,909.6 631,603 652.7,603 				"/>
			</g>
		</g>
		<g>
			<g>
				<polygon class="st19" points="564.6,909.6 586.3,909.6 737.7,603 715.9,603 				"/>
			</g>
		</g>
		<g>
			<g>
				<polygon class="st23" points="190.1,615.2 184.1,603 162.3,603 168.3,615.2 				"/>
			</g>
		</g>
		<g>
			<g>
				<polygon class="st23" points="263,615.2 269,603 247.3,603 241.3,615.2 				"/>
			</g>
		</g>
		<g>
			<g>
				<polygon class="st23" points="658.7,615.2 652.7,603 631,603 637,615.2 				"/>
			</g>
		</g>
		<g>
			<g>
				<polygon class="st23" points="731.7,615.2 737.7,603 715.9,603 709.9,615.2 				"/>
			</g>
		</g>
	</g>
</g>
</svg>
