<?xml version="1.0" encoding="utf-8"?>
<!-- Generator: Adobe Illustrator 22.0.1, SVG Export Plug-In . SVG Version: 6.00 Build 0)  -->
<svg version="1.1" id="Layer_1" xmlns="http://www.w3.org/2000/svg" xmlns:xlink="http://www.w3.org/1999/xlink" x="0px" y="0px"
	 viewBox="0 0 596 540" style="enable-background:new 0 0 596 540;" xml:space="preserve">
<style type="text/css">
	.st0{fill:none;stroke:#FFFFFF;stroke-width:6;stroke-miterlimit:10;}
	.st1{fill:#F3F4F5;}
	.st2{fill:#D60665;}
	.st3{fill:#666666;}
	.st4{fill:#42454A;}
</style>
<g>
	<circle class="st0" cx="296.1" cy="271" r="195.9"/>
	<path class="st1" d="M298.2,15.3c-141.5,0-256.1,114.7-256.1,256.1c0,89.1,45.5,167.5,114.4,213.4c42.1,25.5,91.4,40.2,144.2,40.2
		c33,0,64.6-5.8,94-16.3c93.6-38.1,159.6-130,159.6-237.3C554.4,129.9,439.7,15.3,298.2,15.3z M296.1,466.9
		c-108.2,0-195.9-87.7-195.9-195.9S187.9,75.1,296.1,75.1S492,162.8,492,271S404.3,466.9,296.1,466.9z"/>
	<circle class="st1" cx="296.1" cy="271" r="195.9"/>
	<path class="st2" d="M488.3,254.3c-9.1-77.8-50.1-133.2-123.2-160.7c-71.7-27-138.2-13-195.8,37.7c-35.4,31.2-55.9,71.5-60.7,118.4
		c-7.2,69.6,17,127.1,70.9,172c0.8,0.7,1.6,1.4,2.4,2.2c0.9,0.3,2,1.5,2-0.7c0-2.5,0.2-5,0.3-7.5c0-0.8,0.1-1.6,0.1-2.5
		c0.6-17,1.1-34,0.6-50.9c-0.2-6.4-1.6-12.4-4.4-18.1c-4.1-8.2-9.4-15.7-15.5-22.4c-7-7.6-9.5-16.3-8.7-26.5
		c1.9-26.3,3.3-52.6,5-78.9c1.2-19.1,2.3-38.3,3.6-57.4c0.1-1.2-0.5-3.2,1.4-3.3c2.3-0.2,1.4,1.9,1.5,3c0.9,22.8,1.7,45.6,2.6,68.5
		c0.4,12,1,23.9,1.4,35.9c0.1,1.7,0,3.4,2.4,3.5c2.4,0.1,2.4-1.8,2.6-3.4c0.1-0.7,0.1-1.4,0.2-2c0.8-18.2,1.6-36.4,2.4-54.6
		c0.7-15.9,1.4-31.8,2.1-47.7c0.1-1.2-0.5-3.2,1.5-3.2c1.8,0,1.2,1.8,1.3,2.9c0.8,18.7,1.6,37.5,2.3,56.2c0.7,16,1.4,32,2.2,48.1
		c0.1,1.4-0.3,3.6,2.2,3.6c2.8,0,2.3-2.2,2.4-3.8c0.5-10.3,0.9-20.6,1.3-31c1-24.3,1.9-48.6,3-72.9c0-1.2-0.5-3.2,1.6-3.1
		c1.8,0.1,1.2,1.9,1.2,2.9c0.8,16.3,1.5,32.6,2.2,48.9c0.8,18.5,1.6,36.9,2.4,55.4c0.1,1.8,0,3.7,2.7,3.6c2.6-0.1,2.4-2.1,2.4-3.8
		c0.2-5.8,0.5-11.7,0.7-17.5c1.1-28.5,2.1-57.1,3.2-85.6c0.1-1.3-1-3.9,1.5-3.8c2,0,1.2,2.4,1.3,3.7c0.7,9.2,1.2,18.4,1.8,27.7
		c2.3,37,4.7,74.1,7,111.1c0.5,8.5-2.1,15.7-7.5,22.1c-4,4.7-7.9,9.4-11.3,14.4c-5.5,8.2-10.2,16.7-9.7,27.1c1.6,1.5,3,2.7,1.1,5.2
		c-0.9,1.1-0.3,3.4-0.3,5.1c0,5.9,0,11.8,0,17.7c0,1.3,0.4,2.7-0.8,3.8c-0.1,13.2,0.8,26.3,1.4,39.5c0.1,1.8,0.9,2.6,2.3,3.4
		c29.7,17.4,61.7,26.4,96.2,26.6c2,0,2.8-0.4,2.9-2.6c1.7-31.9,3.8-63.8,3.3-95.7c-0.1-9.1-2.4-17.4-6.9-25.2
		c-5.6-9.6-13-17.7-20.1-26.2c-8.4-10-16.2-20.4-21-32.7c-7-18.1-7.6-36.9-4.7-55.8c2.8-18.5,9.1-35.8,21.5-50.3
		c21.6-25.3,51.4-25.6,73.5-0.8c10.4,11.7,16.6,25.7,20.1,40.8c7.8,33.8,4.1,65.3-18.8,92.9c-6.2,7.4-12.5,14.7-18.3,22.4
		c-6.7,8.8-12.6,18-13.1,29.7c-1.6,33.3,1.3,66.5,2.8,99.8c0.1,2.1,0.6,2.8,2.9,2.5c32.9-4.2,62.8-15.8,89.7-35.2
		c1.7-1.2,2-2.5,2-4.4c-0.1-10.9-4-20.4-10.6-28.9c-4.6-6.1-7.6-12.8-9.3-20.2c-4.6-19.7-3.9-39.7-2.8-59.6
		c1.6-28.1,5.9-55.9,11.1-83.5c3.7-20,7.5-40,13-59.6c1.2-4.2,2.7-8.3,5.5-11.7c2.3-2.8,5.2-3.8,8.7-2.9c3.4,0.9,4.9,3.3,5.3,6.5
		c0.4,2.8,0.7,5.7,0.7,8.5c0.1,23.9,0,47.8,0.1,71.8c0.1,19,0.2,38,0.4,57.1c1.2,0.5,1.3,1.6,1.3,2.7c0,7.9,0,15.9,0,23.8
		c0,1-0.1,1.9-1.2,2.2c-0.1,15.2-0.1,30.4-0.1,45.6c0,6.6-0.5,13-2.7,19.3c-2.1,5.9-3.4,12-4.1,18.2c0.3,0.1,0.5,0.2,0.8,0.2
		c1.2-1.1,2.4-2.2,3.6-3.3c13.5-13.9,25.3-29.1,34.4-46.3C484.7,328.3,492.7,292.3,488.3,254.3z"/>
	<path class="st3" d="M554.4,253.7c-2.1-39.6-13.9-76.6-33.9-110.9C470.7,57.7,378.9,9,280.5,15.6c-53,3.6-100.7,21.8-142,55.1
		c-59.9,48.4-92.3,111.5-96.9,188.4c-2.5,41.1,5.1,80.7,22.2,118.2c17,37.3,40.8,68.2,71.2,93c14.3,10.6,29.7,19.9,45.9,27.6
		c0-0.2,0.1-0.5,0.1-0.7c1.2-20.7,2.5-41.4,3.9-62.1c0.1-1,0.1-1.9,0.1-2.8c-51.2-35.3-84.8-94.4-84.8-161.4
		c0-108.2,87.7-195.9,195.9-195.9c107.6,0,194.9,86.7,195.9,194.1c0,0.3,0,0.7,0,1c0,0.3,0,0.6,0,0.8c0,0,0,0,0,0.1
		c0.7,43-12.2,81.8-38.1,116.1c-7.1,9.6-15,18.5-23.6,26.6c-0.4,0.3-0.7,0.7-1.1,1c-0.6,0.6-1.3,1.2-2,1.7c-0.5,0.5-1.1,1-1.6,1.4
		c0,2.7-0.1,5.3-0.1,8c0,0.8,0,1.6,0.1,2.4c1.2,21.3,2.3,42.6,3.5,64.5c9.4-5.4,17.8-11,25.7-17.3
		C525.5,418.5,559.2,344.6,554.4,253.7z"/>
	<path class="st2" d="M492,271c0-0.3,0-0.6,0-0.8C492,270.4,492,270.7,492,271C492,271,492,271,492,271z"/>
	<path class="st2" d="M181.6,426.3c-9.5-6.3-17.7-14.2-25.4-22.5c-62.9-68.1-70-169.9-15.2-244.8c43.2-59.1,102.8-86.2,175.9-79.8
		c87,7.6,157.4,72.5,172,158.3c1.8,10.8,2.9,21.3,3.2,31.7c-1-107.4-88.3-194.1-195.9-194.1c-108.2,0-195.9,87.7-195.9,195.9
		c0,67,33.6,126.1,84.8,161.4C184.9,429.9,184.1,427.8,181.6,426.3z"/>
	<path class="st2" d="M430.3,413.7c8.7-8.1,16.6-17,23.6-26.6C446.9,396.3,439,405.2,430.3,413.7z"/>
	<path class="st2" d="M425.6,417.9C425.6,417.9,425.6,417.9,425.6,417.9c0.5-0.4,1.1-0.9,1.6-1.4C426.7,417,426.2,417.4,425.6,417.9
		z"/>
	<path class="st3" d="M295.4,468.8c-19.4,0.1-38.4-3.2-56.9-9c-13.6-4.3-26.6-10.1-39.7-17.6c1.5,22.2,2.9,43.7,4.3,65.2
		c28.8,10.8,59.9,17,92.4,17.6c1.1-17.3,2.3-34.6,3.7-52C299.4,469.8,298.7,468.8,295.4,468.8z"/>
	<path class="st3" d="M322.8,467.4c-3.5,0.4-4.4,1.4-4.1,4.9c1.4,17.3,2.6,34.6,3.7,51.9c30.1-2.3,58.8-9.4,85.5-20.6
		c0.9-13.7,1.9-27.3,2.8-41c0.6-9.7,1.1-19.4,1.7-29.5c-0.9,0.4-1.4,0.5-1.8,0.8C384,452.3,354.8,463.5,322.8,467.4z"/>
	<path class="st4" d="M197.1,361.8c-1,10.6-0.7,21.2,0,31.8c1.2-1,0.8-2.5,0.8-3.8c0-5.9,0-11.8,0-17.7c0-1.7-0.6-4,0.3-5.1
		C200.1,364.5,198.7,363.3,197.1,361.8z"/>
	<circle class="st0" cx="296.1" cy="271" r="195.9"/>
</g>
</svg>
