<?xml version="1.0" encoding="utf-8"?>
<!-- Generator: Adobe Illustrator 22.0.1, SVG Export Plug-In . SVG Version: 6.00 Build 0)  -->
<svg version="1.1" id="Layer_1" xmlns="http://www.w3.org/2000/svg" xmlns:xlink="http://www.w3.org/1999/xlink" x="0px" y="0px"
	 viewBox="0 0 1486 540" style="enable-background:new 0 0 1486 540;" xml:space="preserve">
<style type="text/css">
	.st0{fill:#D60665;}
	.st1{fill:none;stroke:#FFFFFF;stroke-width:6;stroke-miterlimit:10;}
	.st2{fill:#F3F4F5;}
	.st3{fill:#666666;}
	.st4{fill:#42454A;}
</style>
<g>
	<g>
		<path class="st0" d="M669.4,308.4c-10.1,27.8-35.4,33.5-53.4,33.5c-19.4,0-41.7-9.5-41.7-48.6c0-41.5,13.5-95.5,64.2-95.5
			c17.7,0,33.2,7.1,33.2,25.5c0,10.1-3.6,17.5-13.3,17.5c-3,0-7.2-0.8-10.9-5c4.8-1.3,8.4-10.9,8.4-15.6c0-3-1-13.5-13.1-13.5
			c-23.4,0-38.5,48.4-38.5,82.3c0,25,4.6,35.6,25.2,35.6c14.7,0,28.6-6.1,35.6-18.3L669.4,308.4z"/>
		<path class="st0" d="M713.8,207.4l-21.9,102.9c-0.6,2.9-1,4.6-1,6.1c0,4.2,2.1,7,9.5,7c7.6,0,17.5-10.7,25.2-16.8h6.5
			c-8.8,8.8-30.3,34.1-45.2,34.1c-14.7,0-23.6-6.5-23.6-20.8c0-2.9,0.4-6.1,1.1-9.7l21.2-99.1L713.8,207.4z"/>
		<path class="st0" d="M757.6,245.5l-13.7,64.8c-0.4,2.1-0.8,4.2-0.8,5.9c0,4.2,1.9,7.2,9.5,7.2s17.5-10.7,25.2-16.8h6.5
			c-8.8,8.8-30.3,34.1-45.2,34.1c-14.7,0-23.8-6.5-23.8-20.8c0-2.9,0.4-6.1,1.1-9.7l13.7-64.8H757.6z M748.9,205.1
			c8.4,0,15.2,6.9,15.2,15.2c0,8.4-6.9,15.1-15.2,15.1c-8.4,0-15.1-6.7-15.1-15.1C733.8,212,740.5,205.1,748.9,205.1z"/>
		<path class="st0" d="M820.9,259c0-4.6-2.9-6.5-7.1-6.5c-16,0-26.3,31.1-26.3,51.6c0,11.2,2.3,20.4,13.9,20.4
			c13.5,0,24.4-8,33.2-17.9h6.5c-9.1,10.3-19.4,34.1-53.2,34.1c-15.8,0-26.1-8.8-26.1-31.2c0-27.8,12-64.6,49-64.6
			c10.3,0,21,2.7,21,13.1c0,2.1-0.2,3.8-1,6.3c-1-0.6-2.5-1.1-4.8-1.1c-1.7,0-3.6,0.4-6.1,1.1C820.5,262.3,820.9,260.6,820.9,259z"
			/>
		<path class="st0" d="M923.6,245.5l-37.9,25.7c1.5-0.2,2.9-0.4,4.4-0.4c10.5,0,22.1,11.4,22.1,24c0,1.3-0.2,2.9-0.6,4.4l-2.5,11.1
			c-0.6,2.7-1.5,5.5-1.5,8c0,3.2,1.5,5.5,7.2,5.5c1.3,0,3.4,0,5-0.6c-5.3,16.4-13.3,17.5-19.8,17.5c-13.5,0-19.4-9-19.4-21
			c0-3,0.4-6.3,1.1-9.5l1.9-9c0.2-1.3,0.4-2.9,0.4-4.4c0-6.1-2.7-11.8-8.6-11.8c-4.6,0-8,1.3-11.8,4l-11.1,51.6h-27.4l27.6-129.6
			l28.2-3.8l-14.1,66.5c14.1-11.2,36.2-28.6,36.2-28.4H923.6z"/>
		<path class="st0" d="M1050.3,218.1L1024,340.8h-27.4l27.1-125.9c-21.3,0-38.1,6.1-38.1,38.3c0,9.7,2.5,11.2,2.7,13
			c-13.1,0-20.4-4.8-20.4-18.5c0-25.3,17.9-49.5,65-49.5c7.8,0,30.3,3.2,49,3.2c8.8,0,16.8-0.8,21.9-2.9c-2.7,8-2.9,24.6-18.1,24.6
			C1075.4,223,1063,220.4,1050.3,218.1z"/>
		<path class="st0" d="M1140.2,258.7l1.9,3.8c-1.9,6.7-5.1,15.6-12.8,20.2c-2.1,39.4-24.6,59.4-42.5,59.4
			c-20.4,0-29.9-8.8-29.9-31.4c0-46.5,24-67.1,50.1-67.1c9.1,0,17.9,3.6,17.9,8.6c0,5.5-4.6,7.8-8.6,9.1c-1.5-4-4.2-6.5-8.6-6.5
			c-18.7,0-25.5,38.9-25.5,54.1c0,11.4,5.7,14.5,13.3,14.5c11.2,0,17.9-20.6,19.8-38.1c-3.8-0.8-5.3-3.8-5.3-7.8
			c0-6.7,6.7-14.5,12.8-14.5c3.6,0,6.5,1.1,6.5,5.1c0,0.6,0,1.1-0.2,1.7C1134.1,266.9,1135.8,263.4,1140.2,258.7z"/>
		<path class="st0" d="M1273.8,308.4c-10.1,27.8-32.8,33.5-50.7,33.5c-26.3,0-39.4-18.9-39.4-38.5c0-18.3,11.4-37.3,34.5-42.1
			c-13-7.1-18.9-18.1-18.9-29c0-17.3,15.2-34.5,42.3-34.5c17.7,0,35.1,7.1,35.1,25.5c0,10.1-3.6,17.5-13.3,17.5c-3,0-7.2-0.8-10.9-5
			c4.8-1.3,8.4-10.9,8.4-15.6c0-3-0.4-14.1-12.6-14.1c-13.9,0-23.2,10.7-23.2,23.4c0,11.1,7.2,23.4,25.2,31.4
			c-24.2,9.9-33.2,25.1-33.2,38.3c0,13.9,10.1,25.3,22.3,25.3c14.7,0,23.1-6.1,30.1-18.3L1273.8,308.4z"/>
		<path class="st0" d="M1356.9,245.5l-13.7,64.8c-0.4,2.1-0.8,4.2-0.8,5.9c0,4.2,1.9,7.2,9.5,7.2c7.6,0,17.5-10.7,25.2-16.8h6.5
			c-8.8,8.8-30.3,34.1-45.2,34.1c-12.4,0-20.8-4.6-23.2-14.5c-5.7,7.8-14.3,15.6-25.9,15.6c-18.3,0-23.6-13-23.6-24.2
			c0-32.8,11.8-72,49.9-72c4.6,0,9.3,1.9,12.8,4.8l1.1-5H1356.9z M1291.3,312.6c0,11.4,6.3,13.5,11.1,13.5c4.4,0,8.6-4.2,12.2-9.5
			c0.2-1.9,0.6-4,1.1-6.3l10.7-50.5c-3-2.7-6.7-3.4-9.3-3.4C1302.7,256.4,1291.3,286.7,1291.3,312.6z"/>
		<path class="st0" d="M1393,310.3c-0.6,2.3-1,4.6-1,6.7c0,4,1.5,6.9,6.7,6.9c1.3,0,3.4,0,5-0.6c-5.3,16.4-13.7,17.5-20.2,17.5
			c-13.3,0-19.1-8.8-19.1-20.6c0-3,0.4-6.5,1.1-9.9l12.2-57.2h-6.3l1.5-7.6h6.3l5.7-26.3l28.2-3.8c0,0-2.9,13-6.5,30.1h11.4
			l-1.5,7.6h-11.4L1393,310.3z"/>
	</g>
	<g>
		<circle class="st1" cx="299.7" cy="270.9" r="178.3"/>
		<path class="st2" d="M301.7,38.2C173,38.2,68.6,142.6,68.6,271.3c0,81,41.4,152.4,104.1,194.2C211,488.7,255.9,502,304,502
			c30,0,58.8-5.2,85.5-14.8c85.2-34.7,145.2-118.3,145.2-215.9C534.7,142.6,430.4,38.2,301.7,38.2z M299.7,449.2
			c-98.5,0-178.3-79.8-178.3-178.3S201.3,92.6,299.7,92.6S478,172.4,478,270.9S398.2,449.2,299.7,449.2z"/>
		<circle class="st2" cx="299.7" cy="270.9" r="178.3"/>
		<path class="st0" d="M474.6,255.7c-8.3-70.8-45.6-121.2-112.1-146.2c-65.2-24.5-125.8-11.9-178.1,34.3
			c-32.2,28.4-50.9,65-55.2,107.8c-6.5,63.4,15.4,115.7,64.5,156.5c0.8,0.6,1.5,1.3,2.2,2c0.8,0.2,1.8,1.3,1.8-0.7
			c0-2.3,0.2-4.6,0.3-6.8c0-0.7,0-1.5,0.1-2.2c0.5-15.4,1-30.9,0.6-46.4c-0.2-5.8-1.4-11.2-4-16.4c-3.7-7.5-8.5-14.2-14.1-20.3
			c-6.4-7-8.6-14.8-8-24.1c1.7-23.9,3-47.9,4.5-71.8c1.1-17.4,2.1-34.8,3.3-52.2c0.1-1.1-0.4-2.9,1.3-3c2.1-0.2,1.3,1.7,1.3,2.7
			c0.8,20.8,1.5,41.5,2.3,62.3c0.4,10.9,0.9,21.8,1.3,32.6c0.1,1.5,0,3.1,2.1,3.2c2.1,0.1,2.2-1.6,2.4-3.1c0.1-0.6,0.1-1.2,0.1-1.8
			c0.7-16.6,1.4-33.1,2.1-49.7c0.6-14.5,1.2-28.9,1.9-43.4c0.1-1.1-0.5-2.9,1.4-2.9c1.6,0,1.1,1.7,1.2,2.6
			c0.7,17.1,1.4,34.1,2.1,51.2c0.6,14.6,1.3,29.2,2,43.7c0.1,1.3-0.3,3.3,2,3.3c2.5,0,2.1-2,2.2-3.5c0.4-9.4,0.8-18.8,1.2-28.2
			c0.9-22.1,1.8-44.2,2.7-66.4c0-1.1-0.5-2.9,1.5-2.8c1.6,0.1,1.1,1.7,1.1,2.7c0.7,14.8,1.3,29.7,2,44.5c0.7,16.8,1.5,33.6,2.2,50.4
			c0.1,1.7,0,3.4,2.4,3.2c2.4-0.1,2.2-1.9,2.2-3.5c0.2-5.3,0.4-10.6,0.6-15.9c1-26,1.9-51.9,2.9-77.9c0-1.2-0.9-3.5,1.4-3.5
			c1.9,0,1.1,2.1,1.2,3.3c0.6,8.4,1.1,16.8,1.6,25.2c2.1,33.7,4.2,67.4,6.4,101.1c0.5,7.7-1.9,14.3-6.9,20.1
			c-3.6,4.2-7.2,8.5-10.3,13.1c-5,7.4-9.3,15.2-8.8,24.7c1.5,1.3,2.7,2.4,1,4.7c-0.8,1-0.2,3.1-0.2,4.7c0,5.4,0,10.8,0,16.1
			c0,1.2,0.4,2.5-0.7,3.4c-0.1,12,0.7,24,1.3,35.9c0.1,1.6,0.8,2.4,2.1,3.1c27,15.8,56.2,24,87.6,24.2c1.8,0,2.6-0.4,2.7-2.4
			c1.5-29,3.4-58,3-87.1c-0.1-8.3-2.1-15.8-6.3-22.9c-5.1-8.7-11.8-16.1-18.3-23.8c-7.6-9.1-14.8-18.6-19.1-29.8
			c-6.4-16.5-6.9-33.6-4.3-50.8c2.6-16.9,8.3-32.6,19.5-45.8c19.7-23,46.8-23.3,66.9-0.7c9.5,10.7,15.1,23.4,18.3,37.2
			c7.1,30.7,3.7,59.4-17.1,84.5c-5.6,6.7-11.4,13.4-16.7,20.3c-6.1,8-11.5,16.4-12,27c-1.4,30.3,1.2,60.6,2.6,90.8
			c0.1,1.9,0.6,2.6,2.6,2.3c29.9-3.8,57.1-14.4,81.6-32c1.5-1.1,1.9-2.3,1.8-4c-0.1-9.9-3.7-18.6-9.6-26.3
			c-4.2-5.5-6.9-11.7-8.4-18.4c-4.2-17.9-3.6-36.1-2.5-54.3c1.5-25.6,5.4-50.8,10.1-76c3.4-18.2,6.8-36.4,11.8-54.3
			c1.1-3.8,2.4-7.5,5-10.7c2.1-2.5,4.7-3.4,7.9-2.6c3.1,0.8,4.4,3,4.8,5.9c0.4,2.6,0.6,5.2,0.6,7.7c0.1,21.8,0,43.5,0.1,65.3
			c0.1,17.3,0.2,34.6,0.3,51.9c1.1,0.5,1.2,1.4,1.2,2.4c0,7.2,0,14.4,0,21.6c0,0.9-0.1,1.7-1.1,2c0,13.8-0.1,27.7-0.1,41.5
			c0,6-0.4,11.9-2.4,17.5c-1.9,5.4-3.1,10.9-3.7,16.6c0.2,0.1,0.5,0.1,0.7,0.2c1.1-1,2.2-2,3.3-3c12.3-12.7,23-26.4,31.3-42.1
			C471.4,323.1,478.6,290.3,474.6,255.7z"/>
		<path class="st3" d="M534.7,255.2c-1.9-36.1-12.7-69.7-30.9-100.9C458.6,76.8,375.1,32.5,285.6,38.5
			c-48.2,3.2-91.6,19.8-129.2,50.1c-54.5,44-84,101.5-88.2,171.4c-2.2,37.4,4.7,73.4,20.2,107.6c15.5,33.9,37.1,62.1,64.8,84.7
			c13,9.7,27,18.1,41.8,25.1c0-0.2,0-0.4,0.1-0.7c1.1-18.8,2.3-37.7,3.6-56.5c0.1-0.9,0.1-1.7,0.1-2.5
			c-46.6-32.2-77.2-85.9-77.2-146.9c0-98.5,79.8-178.3,178.3-178.3c97.9,0,177.4,78.9,178.3,176.6c0,0.3,0,0.6,0,0.9
			c0,0.3,0,0.5,0,0.8c0,0,0,0,0,0.1c0.7,39.1-11.1,74.4-34.7,105.6c-6.4,8.7-13.6,16.8-21.5,24.2c-0.3,0.3-0.6,0.6-1,0.9
			c-0.6,0.6-1.2,1.1-1.8,1.6c-0.5,0.4-1,0.9-1.5,1.3c0,2.4-0.1,4.9-0.1,7.3c0,0.7,0,1.5,0.1,2.2c1.1,19.4,2.1,38.8,3.2,58.7
			c8.5-4.9,16.2-10,23.4-15.8C508.5,405.1,539.2,337.9,534.7,255.2z"/>
		<path class="st0" d="M478,270.9c0-0.3,0-0.5,0-0.8C478,270.4,478,270.7,478,270.9C478,270.9,478,270.9,478,270.9z"/>
		<path class="st0" d="M195.5,412.2c-8.7-5.7-16.1-12.9-23.1-20.5c-57.2-61.9-63.7-154.6-13.9-222.7c39.3-53.8,93.6-78.4,160-72.6
			c79.1,6.9,143.2,65.9,156.5,144.1c1.7,9.8,2.6,19.4,2.9,28.8c-0.9-97.7-80.4-176.6-178.3-176.6c-98.5,0-178.3,79.8-178.3,178.3
			c0,60.9,30.6,114.7,77.2,146.9C198.6,415.5,197.9,413.6,195.5,412.2z"/>
		<path class="st0" d="M421.8,400.8c7.9-7.4,15.1-15.5,21.5-24.2C437,384.9,429.8,393,421.8,400.8z"/>
		<path class="st0" d="M417.6,404.6C417.6,404.6,417.6,404.6,417.6,404.6c0.5-0.4,1-0.8,1.5-1.2
			C418.6,403.7,418.1,404.1,417.6,404.6z"/>
		<path class="st3" d="M299.1,450.9c-17.7,0-34.9-2.9-51.8-8.2c-12.4-3.9-24.2-9.2-36.1-16c1.4,20.2,2.7,39.8,3.9,59.3
			c26.2,9.8,54.5,15.4,84.1,16c1-15.8,2.1-31.5,3.3-47.3C302.7,451.8,302.1,450.9,299.1,450.9z"/>
		<path class="st3" d="M324.1,449.6c-3.2,0.4-4,1.3-3.7,4.4c1.3,15.7,2.3,31.5,3.3,47.2c27.4-2.1,53.5-8.6,77.8-18.7
			c0.8-12.4,1.7-24.9,2.5-37.3c0.6-8.8,1-17.6,1.5-26.9c-0.8,0.4-1.3,0.5-1.7,0.7C379.7,435.8,353.1,446.1,324.1,449.6z"/>
		<path class="st4" d="M209.6,353.5c-0.9,9.7-0.7,19.3,0,29c1.1-1,0.7-2.3,0.7-3.4c0-5.4,0-10.8,0-16.1c0-1.6-0.5-3.6,0.2-4.7
			C212.4,356,211.1,354.9,209.6,353.5z"/>
		<circle class="st1" cx="299.7" cy="270.9" r="178.3"/>
	</g>
</g>
</svg>
